<svg width="128" height="141" viewBox="0 0 128 141" fill="none" xmlns="http://www.w3.org/2000/svg">
<path d="M64.9199 140.52C64.623 140.715 64.2753 140.819 63.9199 140.819C63.5645 140.819 63.2169 140.715 62.9199 140.52L28.2598 117.87C28.0081 117.702 27.8018 117.474 27.6592 117.208C27.5165 116.941 27.4419 116.643 27.4419 116.34C27.4419 116.037 27.5165 115.74 27.6592 115.473C27.8018 115.206 28.0081 114.978 28.2598 114.81L125.01 51.5601C125.287 51.3836 125.606 51.2833 125.934 51.2693C126.262 51.2553 126.589 51.328 126.88 51.4801C127.177 51.6325 127.427 51.8628 127.603 52.1464C127.779 52.43 127.875 52.7563 127.88 53.0901V98.4C127.88 98.7041 127.805 99.0035 127.66 99.2708C127.515 99.538 127.305 99.7647 127.05 99.9301L64.9199 140.52ZM12.2598 107.41C12.5585 107.601 12.9055 107.702 13.2598 107.702C13.6141 107.702 13.961 107.601 14.2598 107.41L127.01 33.7001C127.265 33.5347 127.475 33.308 127.62 33.0408C127.765 32.7735 127.84 32.4741 127.84 32.1701V2.65003C127.84 2.16469 127.647 1.69928 127.304 1.35609C126.961 1.01289 126.495 0.820075 126.01 0.820075H101.86C101.504 0.819087 101.156 0.923406 100.86 1.12L0.859863 66.51C0.605358 66.6761 0.396371 66.9029 0.251465 67.1701C0.106559 67.4372 0.0302191 67.7362 0.0297852 68.04V98.4C0.0293154 98.7041 0.105013 99.0035 0.25 99.2708C0.394987 99.538 0.604722 99.7647 0.859863 99.9301L12.2598 107.41ZM0 47.12C0.000470072 47.4495 0.0898763 47.7728 0.258789 48.0557C0.427702 48.3386 0.669645 48.5706 0.959473 48.7273C1.2493 48.884 1.57608 48.9595 1.90527 48.9459C2.23447 48.9323 2.55415 48.8301 2.83008 48.65L70.8301 4.18006C71.1591 3.96414 71.4093 3.64785 71.5444 3.27821C71.6795 2.90856 71.6919 2.50527 71.5796 2.12806C71.4673 1.75085 71.2366 1.41983 70.9214 1.18421C70.6061 0.948594 70.2236 0.820932 69.8301 0.820075H1.83008C1.34473 0.820075 0.878836 1.01289 0.535645 1.35609C0.192453 1.69928 0 2.16469 0 2.65003V47.12Z" fill="url(#paint0_linear_8_755)"/>
<defs>
<linearGradient id="paint0_linear_8_755" x1="120.85" y1="-12.4999" x2="-3.30004" y2="124.95" gradientUnits="userSpaceOnUse">
<stop stop-color="#FC932C"/>
<stop offset="0.35" stop-color="#FCAD36"/>
<stop offset="0.75" stop-color="#FDC53F"/>
<stop offset="1" stop-color="#FDCE42"/>
</linearGradient>
</defs>
</svg>
